<?xml version="1.0" ?>
<svg xmlns="http://www.w3.org/2000/svg" viewBox="0 0 1200 800" width="1200" height="800" style="background-color: #ffffff; font-family: -apple-system, BlinkMacSystemFont, 'Segoe UI', Roboto, Helvetica, Arial, sans-serif;">
  <defs>
    <marker id="arrowhead" markerWidth="10" markerHeight="7" refX="9" refY="3.5" orient="auto">
      <polygon points="0 0, 10 3.5, 0 7" fill="#4a5568"/>
    </marker>
    <marker id="arrowhead_dashed" markerWidth="10" markerHeight="7" refX="9" refY="3.5" orient="auto">
      <polygon points="0 0, 10 3.5, 0 7" fill="#9ca3af"/>
    </marker>
  </defs>
  <text x="600" y="40" font-size="20" font-weight="bold" fill="#1e293b" text-anchor="middle">Production-Scale Vacation Rental Marketplace — Target Architecture</text>
  <text x="600" y="65" font-size="12" font-weight="normal" fill="#64748b" text-anchor="middle">The submitted take-home application is a frontend-only implementation. The architecture below represents the production-scale marketplace</text>
  <text x="600" y="80" font-size="12" font-weight="normal" fill="#64748b" text-anchor="middle">requested by the assignment and is a proposed target architecture, not implemented infrastructure.</text>
  <rect x="200" y="110" width="500" height="80" fill="none" stroke="#e2e8f0" stroke-width="2" rx="12"/>
  <rect x="200" y="110" width="500" height="80" fill="none" stroke="#94a3b8" stroke-width="1.5" stroke-dasharray="6 6" rx="12"/>
  <rect x="220" y="100" width="136" height="20" fill="#ffffff"/>
  <text x="288.0" y="114" font-size="12" font-weight="bold" fill="#64748b" text-anchor="middle">LAYER 1 - CLIENTS</text>
  <rect x="300" y="130" width="120" height="40" fill="#eff6ff" stroke="#bfdbfe" stroke-width="2" rx="8"/>
  <text x="360.0" y="155.0" font-size="14" font-weight="500" fill="#1e293b" text-anchor="middle">Web Browser</text>
  <rect x="480" y="130" width="120" height="40" fill="#eff6ff" stroke="#bfdbfe" stroke-width="2" rx="8"/>
  <text x="540.0" y="155.0" font-size="14" font-weight="500" fill="#1e293b" text-anchor="middle">Mobile App</text>
  <path d="M 360 170 L 360 220" style="stroke: #4a5568; stroke-width: 2; fill: none; marker-end: url(#arrowhead);"/>
  <path d="M 540 170 L 540 220" style="stroke: #4a5568; stroke-width: 2; fill: none; marker-end: url(#arrowhead);"/>
  <rect x="200" y="220" width="500" height="100" fill="none" stroke="#e2e8f0" stroke-width="2" rx="12"/>
  <rect x="200" y="220" width="500" height="100" fill="none" stroke="#94a3b8" stroke-width="1.5" stroke-dasharray="6 6" rx="12"/>
  <rect x="220" y="210" width="112" height="20" fill="#ffffff"/>
  <text x="276.0" y="224" font-size="12" font-weight="bold" fill="#64748b" text-anchor="middle">LAYER 2 - EDGE</text>
  <rect x="300" y="240" width="300" height="30" fill="#f0fdf4" stroke="#bbf7d0" stroke-width="2" rx="8"/>
  <text x="450.0" y="260.0" font-size="14" font-weight="500" fill="#1e293b" text-anchor="middle">CDN / Edge</text>
  <rect x="300" y="280" width="300" height="30" fill="#fef2f2" stroke="#fecaca" stroke-width="2" rx="8"/>
  <text x="450.0" y="300.0" font-size="14" font-weight="500" fill="#1e293b" text-anchor="middle">WAF</text>
  <path d="M 450 310 L 450 360" style="stroke: #4a5568; stroke-width: 2; fill: none; marker-end: url(#arrowhead);"/>
  <rect x="200" y="360" width="500" height="80" fill="none" stroke="#e2e8f0" stroke-width="2" rx="12"/>
  <rect x="200" y="360" width="500" height="80" fill="none" stroke="#94a3b8" stroke-width="1.5" stroke-dasharray="6 6" rx="12"/>
  <rect x="220" y="350" width="136" height="20" fill="#ffffff"/>
  <text x="288.0" y="364" font-size="12" font-weight="bold" fill="#64748b" text-anchor="middle">LAYER 3 - TRAFFIC</text>
  <rect x="250" y="380" width="400" height="40" fill="#faf5ff" stroke="#e9d5ff" stroke-width="2" rx="8"/>
  <text x="450.0" y="405.0" font-size="14" font-weight="500" fill="#1e293b" text-anchor="middle">Load Balancer / API Gateway</text>
  <path d="M 450 420 L 450 460" style="stroke: #4a5568; stroke-width: 2; fill: none; marker-end: url(#arrowhead);"/>
  <rect x="80" y="460" width="740" height="120" fill="none" stroke="#e2e8f0" stroke-width="2" rx="12"/>
  <rect x="80" y="460" width="740" height="120" fill="none" stroke="#94a3b8" stroke-width="1.5" stroke-dasharray="6 6" rx="12"/>
  <rect x="100" y="450" width="280" height="20" fill="#ffffff"/>
  <text x="240.0" y="464" font-size="12" font-weight="bold" fill="#64748b" text-anchor="middle">LAYER 4 - CORE MARKETPLACE SERVICES</text>
  <rect x="100" y="480" width="120" height="40" fill="#ffffff" stroke="#cbd5e1" stroke-width="2" rx="8"/>
  <text x="160.0" y="505.0" font-size="13" font-weight="500" fill="#1e293b" text-anchor="middle">Auth / User</text>
  <rect x="240" y="480" width="120" height="40" fill="#ffffff" stroke="#cbd5e1" stroke-width="2" rx="8"/>
  <text x="300.0" y="505.0" font-size="13" font-weight="500" fill="#1e293b" text-anchor="middle">Listing</text>
  <rect x="380" y="480" width="120" height="40" fill="#ffffff" stroke="#cbd5e1" stroke-width="2" rx="8"/>
  <text x="440.0" y="505.0" font-size="13" font-weight="500" fill="#1e293b" text-anchor="middle">Search</text>
  <rect x="520" y="480" width="120" height="40" fill="#ffffff" stroke="#cbd5e1" stroke-width="2" rx="8"/>
  <text x="580.0" y="505.0" font-size="13" font-weight="500" fill="#1e293b" text-anchor="middle">Availability</text>
  <rect x="660" y="480" width="120" height="40" fill="#ffffff" stroke="#cbd5e1" stroke-width="2" rx="8"/>
  <text x="720.0" y="505.0" font-size="13" font-weight="500" fill="#1e293b" text-anchor="middle">Booking</text>
  <rect x="170" y="530" width="120" height="40" fill="#ffffff" stroke="#cbd5e1" stroke-width="2" rx="8"/>
  <text x="230.0" y="555.0" font-size="13" font-weight="500" fill="#1e293b" text-anchor="middle">Payment</text>
  <rect x="310" y="530" width="120" height="40" fill="#ffffff" stroke="#cbd5e1" stroke-width="2" rx="8"/>
  <text x="370.0" y="555.0" font-size="13" font-weight="500" fill="#1e293b" text-anchor="middle">Review</text>
  <rect x="450" y="530" width="120" height="40" fill="#ffffff" stroke="#cbd5e1" stroke-width="2" rx="8"/>
  <text x="510.0" y="555.0" font-size="13" font-weight="500" fill="#1e293b" text-anchor="middle">Notification</text>
  <rect x="590" y="530" width="120" height="40" fill="#ffffff" stroke="#cbd5e1" stroke-width="2" rx="8"/>
  <text x="650.0" y="555.0" font-size="13" font-weight="500" fill="#1e293b" text-anchor="middle">Media</text>
  <rect x="100" y="620" width="700" height="80" fill="none" stroke="#e2e8f0" stroke-width="2" rx="12"/>
  <rect x="100" y="620" width="700" height="80" fill="none" stroke="#94a3b8" stroke-width="1.5" stroke-dasharray="6 6" rx="12"/>
  <rect x="120" y="610" width="248" height="20" fill="#ffffff"/>
  <text x="244.0" y="624" font-size="12" font-weight="bold" fill="#64748b" text-anchor="middle">LAYER 5 - DATA / INFRASTRUCTURE</text>
  <rect x="140" y="640" width="130" height="40" fill="#f8fafc" stroke="#94a3b8" stroke-width="2" rx="8"/>
  <text x="205.0" y="665.0" font-size="14" font-weight="500" fill="#1e293b" text-anchor="middle">PostgreSQL</text>
  <rect x="300" y="640" width="130" height="40" fill="#f8fafc" stroke="#94a3b8" stroke-width="2" rx="8"/>
  <text x="365.0" y="665.0" font-size="14" font-weight="500" fill="#1e293b" text-anchor="middle">Redis</text>
  <rect x="460" y="640" width="130" height="40" fill="#f8fafc" stroke="#94a3b8" stroke-width="2" rx="8"/>
  <text x="525.0" y="665.0" font-size="14" font-weight="500" fill="#1e293b" text-anchor="middle">OpenSearch</text>
  <rect x="620" y="640" width="130" height="40" fill="#f8fafc" stroke="#94a3b8" stroke-width="2" rx="8"/>
  <text x="685.0" y="665.0" font-size="14" font-weight="500" fill="#1e293b" text-anchor="middle">Object Storage</text>
  <path d="M 240 520 L 240 580.0 L 205 580.0 L 205 640" style="stroke: #4a5568; stroke-width: 2; fill: none; marker-end: url(#arrowhead);"/>
  <path d="M 380 480 L 380 560.0 L 525 560.0 L 525 640" style="stroke: #4a5568; stroke-width: 2; fill: none; marker-end: url(#arrowhead);"/>
  <path d="M 730 570 L 730 605.0 L 685 605.0 L 685 640" style="stroke: #4a5568; stroke-width: 2; fill: none; marker-end: url(#arrowhead);"/>
  <path d="M 380 520 L 380 580.0 L 365 580.0 L 365 640" style="stroke: #4a5568; stroke-width: 2; fill: none; marker-end: url(#arrowhead);"/>
  <rect x="850" y="460" width="300" height="150" fill="none" stroke="#e2e8f0" stroke-width="2" rx="12"/>
  <rect x="850" y="460" width="300" height="150" fill="none" stroke="#94a3b8" stroke-width="1.5" stroke-dasharray="6 6" rx="12"/>
  <rect x="870" y="450" width="208" height="20" fill="#ffffff"/>
  <text x="974.0" y="464" font-size="12" font-weight="bold" fill="#64748b" text-anchor="middle">LAYER 6 - ASYNC PROCESSING</text>
  <rect x="880" y="490" width="240" height="40" fill="#fffbeb" stroke="#fde68a" stroke-width="2" rx="8"/>
  <text x="1000.0" y="515.0" font-size="14" font-weight="500" fill="#1e293b" text-anchor="middle">Event Bus / Queue (Kafka)</text>
  <rect x="880" y="550" width="240" height="40" fill="#f8fafc" stroke="#cbd5e1" stroke-width="2" rx="8"/>
  <text x="1000.0" y="575.0" font-size="14" font-weight="500" fill="#1e293b" text-anchor="middle">Background Workers</text>
  <path d="M 1000 530 L 1000 550" style="stroke: #4a5568; stroke-width: 2; fill: none; marker-end: url(#arrowhead);"/>
  <path d="M 740 490 L 880 510" style="stroke: #9ca3af; stroke-width: 2; fill: none; stroke-dasharray: 5 5; marker-end: url(#arrowhead_dashed);"/>
  <path d="M 1000 590 L 1000 615.0 L 525 615.0 L 525 640" style="stroke: #4a5568; stroke-width: 2; fill: none; marker-end: url(#arrowhead);"/>
  <path d="M 1000 590 L 1000 615.0 L 685 615.0 L 685 640" style="stroke: #4a5568; stroke-width: 2; fill: none; marker-end: url(#arrowhead);"/>
  <rect x="850" y="110" width="300" height="260" fill="none" stroke="#e2e8f0" stroke-width="2" rx="12"/>
  <rect x="850" y="110" width="300" height="260" fill="none" stroke="#94a3b8" stroke-width="1.5" stroke-dasharray="6 6" rx="12"/>
  <rect x="870" y="100" width="264" height="20" fill="#ffffff"/>
  <text x="1002.0" y="114" font-size="12" font-weight="bold" fill="#64748b" text-anchor="middle">LAYER 7 - DEPLOYMENT &amp; OPERATIONS</text>
  <rect x="880" y="140" width="240" height="30" fill="#f8fafc" stroke="#cbd5e1" stroke-width="2" rx="8"/>
  <text x="1000.0" y="160.0" font-size="14" font-weight="500" fill="#1e293b" text-anchor="middle">Source Repository</text>
  <path d="M 1000 170 L 1000 190" style="stroke: #4a5568; stroke-width: 2; fill: none; marker-end: url(#arrowhead);"/>
  <rect x="880" y="190" width="240" height="30" fill="#f8fafc" stroke="#cbd5e1" stroke-width="2" rx="8"/>
  <text x="1000.0" y="210.0" font-size="14" font-weight="500" fill="#1e293b" text-anchor="middle">CI / CD Pipeline</text>
  <path d="M 1000 220 L 1000 240" style="stroke: #4a5568; stroke-width: 2; fill: none; marker-end: url(#arrowhead);"/>
  <rect x="880" y="240" width="240" height="30" fill="#eff6ff" stroke="#bfdbfe" stroke-width="2" rx="8"/>
  <text x="1000.0" y="260.0" font-size="14" font-weight="500" fill="#1e293b" text-anchor="middle">Production Deployment</text>
  <rect x="880" y="300" width="110" height="30" fill="#f8fafc" stroke="#cbd5e1" stroke-width="2" rx="8"/>
  <text x="935.0" y="320.0" font-size="14" font-weight="500" fill="#1e293b" text-anchor="middle">Logs</text>
  <rect x="1010" y="300" width="110" height="30" fill="#f8fafc" stroke="#cbd5e1" stroke-width="2" rx="8"/>
  <text x="1065.0" y="320.0" font-size="14" font-weight="500" fill="#1e293b" text-anchor="middle">Metrics</text>
  <rect x="880" y="340" width="110" height="30" fill="#f8fafc" stroke="#cbd5e1" stroke-width="2" rx="8"/>
  <text x="935.0" y="360.0" font-size="14" font-weight="500" fill="#1e293b" text-anchor="middle">Tracing</text>
  <rect x="1010" y="340" width="110" height="30" fill="#f8fafc" stroke="#cbd5e1" stroke-width="2" rx="8"/>
  <text x="1065.0" y="360.0" font-size="14" font-weight="500" fill="#1e293b" text-anchor="middle">Alerts</text>
</svg>
